<svg xmlns="http://www.w3.org/2000/svg" width="40" height="40" viewBox="0 0 40 40"><defs><style>.a{fill:#e9f2fc;}.b{fill:#d2ea7b;}.c{fill:#c4e456;}.d{fill:#f8f7f7;}.e{fill:#ebebeb;}.f{fill:#dd646e;}.g{fill:#da4955;}</style></defs><g transform="translate(-136.5 -817)"><circle class="a" cx="20" cy="20" r="20" transform="translate(136.5 817)"/><g transform="translate(115.547 826.095)"><g transform="translate(31.469 0.336)"><path class="b" d="M48.925,265.685l.167-.2H64.129a.9.9,0,0,1,.888.783l.618,4.921-.35,1.185.619.962.188,1.5h-.2a.9.9,0,0,1-.888,1.006l-17.044.168a.9.9,0,0,1-.888-1.006l.959-8.537A.9.9,0,0,1,48.925,265.685Z" transform="translate(-46.695 -253.945)"/><path class="c" d="M57.229,276.179H39.573a.9.9,0,0,1-.888-1.006l.23-1.835.511-.9-.241-1.251.618-4.921a.9.9,0,0,1,.888-.783h.384l-1.047,8.344a.9.9,0,0,0,.888,1.006h17.16l.042.336A.9.9,0,0,1,57.229,276.179Z" transform="translate(-38.678 -253.945)"/><path class="d" d="M62.958,273.338H60.049a.224.224,0,0,0-.224.224v2.617H57.588v-2.617a.224.224,0,0,0-.224-.224H43.987l.522-1.022-.253-1.125h2.3a.224.224,0,0,0,.224-.22l.082-5.484H49.1l-.083,5.477a.224.224,0,0,0,.224.227H62.689l.157,1.253-.271.436Z" transform="translate(-43.749 -253.945)"/><g transform="translate(0.237 11.542)"><path class="e" d="M101.8,265.487h.895l-.082,5.484a.224.224,0,0,1-.224.22H101.5a.224.224,0,0,0,.224-.22Z" transform="translate(-98.924 -265.487)"/><path class="e" d="M401.15,421.882h-2.909a.224.224,0,0,0-.224.224v-.895a.224.224,0,0,1,.224-.224h2.8Z" transform="translate(-382.179 -414.03)"/><path class="e" d="M57.364,394.24H45.475a.179.179,0,0,1-.178-.2l.132-1.051H44.255l-.269,2.147H57.364a.224.224,0,0,1,.224.224v-.895A.224.224,0,0,0,57.364,394.24Z" transform="translate(-43.986 -387.283)"/><path class="e" d="M348.017,474.487h2.237v1.342h-2.237Z" transform="translate(-334.415 -465.137)"/></g><path class="f" d="M114.917,14.51c0-2.562.88-4.8,2.824-6.026a6.494,6.494,0,0,1,3.489-.985,6.711,6.711,0,0,1,6.648,7.011c0,4.386-3.8,8.473-5.657,10.185a6.234,6.234,0,0,1-.966.672c-.052.04-.119-.011-.171-.051-.811-.627-6.167-5.411-6.167-10.806Z" transform="translate(-111.506 -7.5)"/><path class="g" d="M115.048,45.719c-.428.394-.752.662-.9.779a.144.144,0,0,1-.177,0c-.81-.627-6.56-5.569-6.56-10.965a7.019,7.019,0,0,1,3.16-6.026,7.192,7.192,0,0,0-2.131,5.221c0,5.4,5.75,10.338,6.56,10.965A.142.142,0,0,0,115.048,45.719Z" transform="translate(-104.332 -28.522)"/><g transform="translate(5.073 2.089)"><path class="d" d="M161.652,59.121a4.9,4.9,0,0,1-1.023,3,4.748,4.748,0,0,1-3.9,1.716,4.611,4.611,0,0,1-4.65-4.821,4.5,4.5,0,0,1,1.647-3.8,4.921,4.921,0,0,1,7.924,3.9Z" transform="translate(-152.081 -54.2)"/></g><g transform="translate(4.802 3.112)"><path class="e" d="M154.836,83.959a4.921,4.921,0,1,1-6.9-6.9,4.921,4.921,0,0,0,6.9,6.9Z" transform="translate(-146.017 -77.057)"/></g></g><g transform="translate(31.131 0)"><path d="M51.241,21.521l-.229-1.827h0l-.269-2.145v-.01l-.285-2.27a.336.336,0,1,0-.666.084l.238,1.893H42.971a24.108,24.108,0,0,0,2.159-2.423,18.256,18.256,0,0,0,1.7-2.61H48.9a.56.56,0,0,1,.555.49l.136,1.086a.336.336,0,0,0,.332.294l.042,0a.336.336,0,0,0,.291-.375l-.136-1.086A1.232,1.232,0,0,0,48.9,11.542H47.168a9.971,9.971,0,0,0,1.008-4.2,7.568,7.568,0,0,0-1.962-5.186A6.77,6.77,0,0,0,41.192,0a6.87,6.87,0,0,0-3.666,1.035.336.336,0,0,0,.357.568A6.2,6.2,0,0,1,41.192.671a6.359,6.359,0,0,1,6.313,6.675,9.6,9.6,0,0,1-1.151,4.336A17.54,17.54,0,0,1,44.6,14.412a22.914,22.914,0,0,1-3.407,3.54,22.919,22.919,0,0,1-3.407-3.54,17.539,17.539,0,0,1-1.755-2.729,9.6,9.6,0,0,1-1.151-4.336,6.883,6.883,0,0,1,1.829-4.778.336.336,0,0,0-.487-.462,7.55,7.55,0,0,0-2.013,5.24,9.97,9.97,0,0,0,1.008,4.2H33.482a1.232,1.232,0,0,0-1.221,1.077l-.618,4.921v.01l-.269,2.145h0l-.229,1.827A1.248,1.248,0,0,0,32.364,22.9H50.02A1.248,1.248,0,0,0,51.241,21.521ZM39.414,17.246H37.079l.058-2.578.118.155A24.105,24.105,0,0,0,39.414,17.246Zm-7.469,4.8a.552.552,0,0,1-.136-.44L32,20.064h7.221a.336.336,0,0,0,0-.671H32.087l.185-1.476h2.007a.561.561,0,0,0,.559-.551l.028-1.838a.336.336,0,0,0-.33-.341h-.005a.336.336,0,0,0-.335.33l-.026,1.727H32.356l.57-4.543a.56.56,0,0,1,.555-.49h.763l-.026,1.739a.335.335,0,0,0,.33.341h.005a.336.336,0,0,0,.335-.33l.026-1.749h.634a16.809,16.809,0,0,0,.936,1.549l-.08,3.587a.559.559,0,0,0,.559.568h3.162c.468.423.765.654.773.66a.48.48,0,0,0,.587,0c.007-.006.3-.238.773-.66h7.854l.185,1.476H47.769a.56.56,0,0,0-.559.559v2.282H45.644V19.952a.56.56,0,0,0-.559-.559H40.79a.336.336,0,1,0,0,.671h4.183v2.17H32.364a.552.552,0,0,1-.419-.189Zm18.495,0a.552.552,0,0,1-.419.189H47.88v-2.17h2.5l.193,1.541A.552.552,0,0,1,50.44,22.045Z" transform="translate(-31.131 0)"/><path d="M143.774,57.213a5.257,5.257,0,1,0-5.257-5.257A5.263,5.263,0,0,0,143.774,57.213Zm0-9.842a4.586,4.586,0,1,1-4.586,4.586A4.591,4.591,0,0,1,143.774,47.371Z" transform="translate(-133.713 -44.611)"/></g></g></g></svg>