<svg xmlns="http://www.w3.org/2000/svg" width="22.678" height="26.76" viewBox="0 0 22.678 26.76"><defs><style>.a{fill:#ffde55;}.b{fill:#ffe477;}.c{fill:#939598;}.d{fill:#808285;}.e{fill:#a97c50;}.f{fill:#a7a9ac;}.g{fill:#ff9811;}</style></defs><g transform="translate(-0.5)"><path class="a" d="M174.059,338.441h2.268V339.8h-2.268Zm0,0" transform="translate(-164.488 -320.752)"/><path class="b" d="M217.449,338.441h2.268V339.8h-2.268Zm0,0" transform="translate(-205.61 -320.752)"/><path class="b" d="M237.526,192.275a1.361,1.361,0,0,0-2.721,0v1.361h1.361A1.361,1.361,0,0,0,237.526,192.275Zm0,0" transform="translate(-222.059 -180.936)"/><path class="a" d="M149.384,193.635h1.361v-1.361a1.361,1.361,0,1,0-1.361,1.361Zm0,0" transform="translate(-139.813 -180.936)"/><path class="c" d="M156.7,391.415a.907.907,0,0,0,.907.907h4.536a.907.907,0,0,0,0-1.814H157.61A.907.907,0,0,0,156.7,391.415Zm0,0" transform="translate(-148.039 -370.098)"/><path class="d" d="M156.7,426.126a.907.907,0,0,0,.907.907h4.536a.907.907,0,0,0,0-1.814H157.61A.907.907,0,0,0,156.7,426.126Zm0,0" transform="translate(-148.039 -402.994)"/><path class="e" d="M182.738,460.841a1.814,1.814,0,1,0,3.628,0v-.907h-3.628Zm0,0" transform="translate(-172.713 -435.895)"/><path class="f" d="M156.7,356.7a.907.907,0,0,0,.907.907h4.536a.907.907,0,0,0,0-1.814H157.61A.907.907,0,0,0,156.7,356.7Zm0,0" transform="translate(-148.039 -337.201)"/><path class="a" d="M85,86.719H83.639A1.361,1.361,0,1,1,85,85.359v1.361h.907V78.1a7.257,7.257,0,0,0-2.721,13.983,7.147,7.147,0,0,0,2.721.531v-5.9Zm0,0" transform="translate(-74.068 -74.02)"/><path class="b" d="M217.449,78.1v8.618h.907V85.359a1.361,1.361,0,1,1,1.361,1.361h-2.268v5.9a7.152,7.152,0,0,0,2.721-.531A7.257,7.257,0,0,0,217.449,78.1Zm0,0" transform="translate(-205.61 -74.02)"/><path class="g" d="M209.224,2.721a.453.453,0,0,1-.454-.453V.453a.454.454,0,0,1,.907,0V2.268A.453.453,0,0,1,209.224,2.721Zm0,0" transform="translate(-197.385)"/><path class="g" d="M63.335,63.289a.453.453,0,0,1-.321-.133l-1.283-1.283a.454.454,0,0,1,.641-.641l1.283,1.283a.453.453,0,0,1-.321.774Zm0,0" transform="translate(-57.91 -57.911)"/><path class="g" d="M2.768,209.177H.953a.454.454,0,0,1,0-.907H2.768a.454.454,0,0,1,0,.907Zm0,0" transform="translate(0 -197.385)"/><path class="g" d="M61.953,333.085a.454.454,0,0,1-.321-.774l1.283-1.283a.454.454,0,0,1,.653.63l-.011.011-1.283,1.283A.454.454,0,0,1,61.953,333.085Zm0,0" transform="translate(-57.812 -313.595)"/><path class="g" d="M333.131,333.084a.455.455,0,0,1-.321-.133l-1.283-1.283a.454.454,0,1,1,.63-.653l.011.011,1.283,1.283a.454.454,0,0,1-.321.774Zm0,0" transform="translate(-313.595 -313.594)"/><path class="g" d="M384.6,209.177h-1.814a.454.454,0,0,1,0-.907H384.6a.454.454,0,1,1,0,.907Zm0,0" transform="translate(-361.875 -197.385)"/><path class="g" d="M331.949,63.087a.453.453,0,0,1-.321-.774l1.283-1.283a.454.454,0,0,1,.653.63l-.011.011-1.283,1.283A.454.454,0,0,1,331.949,63.087Zm0,0" transform="translate(-313.696 -57.708)"/><path class="g" d="M227.032,234.759v5.9h-.907v-5.9a.454.454,0,0,1,.907,0Zm0,0" transform="translate(-213.832 -222.059)"/><path class="g" d="M192.321,234.759v5.9h-.907v-5.9a.454.454,0,1,1,.907,0Zm0,0" transform="translate(-180.936 -222.059)"/><path class="g" d="M227.943,185.866a.454.454,0,1,1,0-.907.907.907,0,1,0-.907-.907.454.454,0,0,1-.907,0,1.814,1.814,0,1,1,1.814,1.814Zm0,0" transform="translate(-213.836 -172.713)"/><path class="g" d="M141.162,185.866a1.814,1.814,0,1,1,1.814-1.814.454.454,0,0,1-.907,0,.907.907,0,1,0-.907.907.454.454,0,1,1,0,.907Zm0,0" transform="translate(-131.591 -172.713)"/><path class="g" d="M170.372,235.212h-4.536a.454.454,0,0,1,0-.907h4.536a.454.454,0,0,1,0,.907Zm0,0" transform="translate(-156.265 -222.059)"/><path class="g" d="M191.868,210.538a.454.454,0,0,1-.454-.453v-1.361a.454.454,0,1,1,.907,0v1.361A.453.453,0,0,1,191.868,210.538Zm0,0" transform="translate(-180.936 -197.385)"/><path class="g" d="M226.582,210.538a.453.453,0,0,1-.453-.453v-1.361a.454.454,0,1,1,.907,0v1.361A.454.454,0,0,1,226.582,210.538Zm0,0" transform="translate(-213.836 -197.385)"/></g></svg>