<svg xmlns="http://www.w3.org/2000/svg" width="403" height="39.4" viewBox="0 0 403 39.4"><defs><style>.a{opacity:0.44;mix-blend-mode:luminosity;}.a,.l,.n,.q,.r{isolation:isolate;}.b{fill:#001038;}.c{fill:#001b5e;}.d{fill:#308ade;}.e{fill:#0034b8;}.f{fill:#002991;}.g{fill:#001f6b;}.h{fill:#ff4726;}.i{fill:#c9e9ff;}.j{fill:#cff1ff;}.k{fill:#161aa8;}.l,.n,.q,.r{mix-blend-mode:overlay;}.m{fill:#14a1ff;}.n,.o,.r{fill:#fff;}.n{opacity:0.3;}.p{fill:#121585;}.q,.r{opacity:0.4;}.s{fill:#96ceff;}.t{fill:#6bb9ff;}.u{fill:#fbb03b;}</style></defs><g transform="translate(-9 -1490.6)"><g class="a" transform="translate(-58.987 1418.31)"><g transform="translate(96.667 79.631)"><g transform="translate(118.243 0.458)"><rect class="b" width="3.95" height="26.993" transform="translate(0 0.458)"/><g transform="translate(0.395)"><rect class="c" width="0.478" height="27.91" rx="0.239"/><rect class="c" width="0.478" height="27.91" rx="0.239" transform="translate(0.894)"/><rect class="c" width="0.478" height="27.91" rx="0.239" transform="translate(1.788)"/><rect class="c" width="0.478" height="27.91" rx="0.239" transform="translate(2.681)"/></g></g><rect class="b" width="94.539" height="3.106" transform="translate(19.046 25.363)"/><g transform="translate(20.452 23.762)"><g transform="translate(0 0.78)"><circle class="d" cx="2.934" cy="2.934" r="2.934" transform="translate(0 5.792) rotate(-80.75)"/><circle class="e" cx="2.521" cy="2.521" r="2.521" transform="translate(0.847 0.847)"/><circle class="f" cx="2.187" cy="2.187" r="2.187" transform="translate(0.859 5.175) rotate(-80.758)"/></g><path class="c" d="M189.811,178.278h-2.034l-2.348-.607h-3.1v2.583h2.768l2.684,1.338h2.034Z" transform="translate(-180.618 -176.07)"/><rect class="g" width="4.306" height="0.805" transform="translate(1.064 1.6)"/><g transform="translate(2.31 3.09)"><path class="e" d="M186.772,184.487a1.057,1.057,0,1,1-1.057-1.058A1.057,1.057,0,0,1,186.772,184.487Z" transform="translate(-184.657 -183.429)"/><path class="d" d="M187.549,185.682a.641.641,0,1,1-.641-.641A.641.641,0,0,1,187.549,185.682Z" transform="translate(-185.851 -184.624)"/></g><rect class="b" width="1.441" height="1.751" transform="translate(7.751 2.955)"/><g transform="translate(10.87 0)"><circle class="d" cx="2.934" cy="2.934" r="2.934" transform="matrix(0.683, -0.731, 0.731, 0.683, 0, 4.288)"/><circle class="e" cx="2.521" cy="2.521" r="2.521" transform="translate(1.626 1.626)"/><circle class="f" cx="2.187" cy="2.187" r="2.187" transform="translate(1.055 4.147) rotate(-45)"/></g><path class="c" d="M211.261,178.278h2.034l2.348-.607h3.1v2.583h-2.768l-2.684,1.338h-2.034Z" transform="translate(-202.068 -176.07)"/><rect class="g" width="4.306" height="0.805" transform="translate(17.322 2.405) rotate(180)"/><g transform="translate(13.96 3.09)"><path class="e" d="M229.69,184.487a1.058,1.058,0,1,0,1.058-1.058A1.057,1.057,0,0,0,229.69,184.487Z" transform="translate(-229.69 -183.429)"/><path class="d" d="M231.3,185.682a.641.641,0,1,0,.641-.641A.641.641,0,0,0,231.3,185.682Z" transform="translate(-230.884 -184.624)"/></g><rect class="b" width="1.441" height="1.751" transform="translate(10.634 4.706) rotate(180)"/></g><g transform="translate(93.241 23.822)"><g transform="translate(0 0)"><circle class="d" cx="2.934" cy="2.934" r="2.934" transform="translate(0 3.372) rotate(-35.069)"/><circle class="e" cx="2.521" cy="2.521" r="2.521" transform="translate(1.567 1.567)"/><circle class="f" cx="2.187" cy="2.187" r="2.187" transform="translate(0.995 4.088) rotate(-45)"/></g><path class="c" d="M473.959,178.278h-2.034l-2.348-.607h-3.1v2.583h2.768l2.684,1.338h2.034Z" transform="translate(-464.046 -176.13)"/><rect class="g" width="4.306" height="0.805" transform="translate(1.784 1.54)"/><g transform="translate(3.03 3.03)"><path class="e" d="M470.92,184.487a1.058,1.058,0,1,1-1.058-1.058A1.058,1.058,0,0,1,470.92,184.487Z" transform="translate(-468.805 -183.429)"/><path class="d" d="M471.7,185.682a.641.641,0,1,1-.641-.641A.641.641,0,0,1,471.7,185.682Z" transform="translate(-469.999 -184.624)"/></g><rect class="b" width="1.441" height="1.751" transform="translate(8.471 2.895)"/><g transform="translate(12.37 0.72)"><circle class="d" cx="2.934" cy="2.934" r="2.934" transform="translate(0 0.943) rotate(-9.25)"/><circle class="e" cx="2.521" cy="2.521" r="2.521" transform="translate(0.847 0.847)"/><circle class="f" cx="2.187" cy="2.187" r="2.187" transform="translate(0.329 2.796) rotate(-34.338)"/></g><path class="c" d="M495.409,178.278h2.034l2.348-.607h3.1v2.583h-2.768l-2.684,1.338h-2.034Z" transform="translate(-485.497 -176.13)"/><rect class="g" width="4.306" height="0.805" transform="translate(18.041 2.345) rotate(180)"/><g transform="translate(14.68 3.03)"><path class="e" d="M513.838,184.487a1.058,1.058,0,1,0,1.058-1.058A1.057,1.057,0,0,0,513.838,184.487Z" transform="translate(-513.838 -183.429)"/><path class="d" d="M515.45,185.682a.641.641,0,1,0,.641-.641A.64.64,0,0,0,515.45,185.682Z" transform="translate(-515.033 -184.624)"/></g><rect class="b" width="1.441" height="1.751" transform="translate(11.354 4.647) rotate(180)"/></g><rect class="h" width="52.053" height="2.018" transform="translate(66.19 20.752)"/><rect class="h" width="52.053" height="1.24" transform="translate(66.19 17.915)"/><rect class="h" width="52.053" height="2.018" transform="translate(66.19 20.752)"/><rect class="h" width="52.053" height="1.24" transform="translate(66.19 17.915)"/><path class="i" d="M111.886,83.174c-3.6,0-14.9,16.133-15.181,19.181-.426,4.7,2.9,8.836,2.9,8.836h16.861l.714-2.328a1.364,1.364,0,0,1,1.3-.965h15.642a1.365,1.365,0,0,1,1.31.981l.676,2.311h53.861l.714-2.328a1.365,1.365,0,0,1,1.3-.965h15.642a1.365,1.365,0,0,1,1.31.981l.677,2.311h5.29V83.174Z" transform="translate(-96.667 -82.257)"/><rect class="h" width="108.484" height="2.018" transform="translate(9.759 20.752)"/><rect class="h" width="108.484" height="1.24" transform="translate(9.759 17.915)"/><path class="j" d="M155.495,80.548a7.305,7.305,0,0,1,3.145-.917h99.879v.917Z" transform="translate(-140.276 -79.631)"/><path class="k" d="M115.786,97.963h-3.609a75.545,75.545,0,0,0-8.3,11.337c.5-.1,1.5-.9,3.992-3.851C110.073,102.829,113.337,98.815,115.786,97.963Z" transform="translate(-102.01 -93.221)"/><g transform="translate(0.755 11.458)"><path class="l" d="M99.641,131.923c.6-1.441,4.163-5.463,5.85-7.524,1.1-1.348.45.48-.341,1.658-1.1,1.642-1.534,4.378-2.232,4.983S99.126,133.151,99.641,131.923Z" transform="translate(-99.584 -123.923)"/><path class="m" d="M102.292,131.615a51.064,51.064,0,0,1,4.047-7.623c-.024-.146-.194-.066-.582.409-.594.726-1.421,1.7-2.269,2.711-1.246,1.762-2.63,3.838-3.546,5.23C100.272,132.551,101.424,132.086,102.292,131.615Z" transform="translate(-99.849 -123.925)"/></g><path class="n" d="M238.7,83.174H135.676c-1.457,0-4.177,2.644-6.917,5.994L132.342,87a6.69,6.69,0,0,1,3.193-1.193H238.7Z" transform="translate(-120.457 -82.257)"/><path class="l" d="M98.975,164.071c-1.8,0-2.306-4.221-2.306-4.223a11.588,11.588,0,0,0,.773,4.223h0c.031.084.063.166.095.248l.029.073c.027.067.054.133.081.2l.032.077c.035.085.071.168.108.251l.013.029c.033.075.066.147.1.22l.015.033h0a15.157,15.157,0,0,0,1.69,2.828h16.861l.714-2.328a1.364,1.364,0,0,1,1.3-.965h15.642a1.365,1.365,0,0,1,1.31.981l.676,2.311h53.861l.714-2.328a1.365,1.365,0,0,1,1.3-.965h15.642a1.365,1.365,0,0,1,1.309.981l.677,2.311h5.29v-3.958Z" transform="translate(-96.667 -139.096)"/><path class="o" d="M203.623,90.7c-11.1.825-22.232.646-33.349.519l-9.52-.109a.129.129,0,0,0,0,.259c11.125.127,22.267.416,33.391.077,3.162-.1,6.323-.253,9.478-.487C203.788,90.947,203.79,90.688,203.623,90.7Z" transform="translate(-144.083 -87.837)"/><path class="o" d="M306.633,88.288q-2.617.161-5.239.075c-.167-.005-.166.253,0,.259q2.621.087,5.239-.075C306.8,88.537,306.8,88.278,306.633,88.288Z" transform="translate(-248.34 -86.048)"/><path class="o" d="M159.626,140.407q-8.051.214-16.106.115a.129.129,0,0,0,0,.259q8.053.1,16.106-.115A.129.129,0,0,0,159.626,140.407Z" transform="translate(-131.307 -124.684)"/><path class="o" d="M138.494,143.357a28.127,28.127,0,0,0-3.979.176c-.163.019-.166.278,0,.259a28.125,28.125,0,0,1,3.979-.176A.129.129,0,0,0,138.494,143.357Z" transform="translate(-124.632 -126.864)"/><path class="o" d="M334.8,139.946l-23.284.4a.129.129,0,0,0,0,.259l23.284-.4A.129.129,0,0,0,334.8,139.946Z" transform="translate(-255.844 -124.343)"/><path class="o" d="M420.745,138.413l-8.731.174a.129.129,0,0,0,0,.259l8.731-.174A.129.129,0,0,0,420.745,138.413Z" transform="translate(-330.342 -123.206)"/><path class="o" d="M486.408,92.024l-18.141.178a.129.129,0,0,0,0,.259l18.141-.178A.129.129,0,0,0,486.408,92.024Z" transform="translate(-372.043 -88.818)"/><path class="o" d="M538.219,134.289l-3.2.132c-.166.007-.167.265,0,.259l3.2-.132C538.385,134.54,538.386,134.282,538.219,134.289Z" transform="translate(-421.527 -120.149)"/><path class="o" d="M539.834,137.375h-1.067a.129.129,0,0,0,0,.259h1.067A.129.129,0,0,0,539.834,137.375Z" transform="translate(-424.305 -122.437)"/><g transform="translate(7.608 4.742)"><path class="l" d="M142.173,99.306a1.04,1.04,0,0,0-.994-1.343H135.53c-2.929,0-7.8,5.843-9.183,7.858-.33.482-.79,1.581,1.565,1.581h11.02a1.04,1.04,0,0,0,.994-.736Z" transform="translate(-126.077 -97.963)"/><path class="k" d="M129.1,109.161c-1.163,0-1.371-.282-1.4-.339-.061-.116.008-.35.176-.6a34.848,34.848,0,0,1,3.958-4.622c2.022-1.971,3.757-3.056,4.884-3.056h5.649a.626.626,0,0,1,.6.809l-2.246,7.36a.623.623,0,0,1-.6.443Z" transform="translate(-127.263 -99.88)"/><path class="p" d="M131.075,112.62h0a.144.144,0,0,1-.115-.23,35.6,35.6,0,0,1,3.429-3.907c2.686-2.618,3.976-2.821,4.307-2.821h5.182a.145.145,0,0,1,.138.187l-2.035,6.67a.145.145,0,0,1-.138.1Z" transform="translate(-129.673 -103.67)"/><g class="q" transform="translate(1.18 0.669)"><path class="o" d="M134.027,103.791q-.242.236-.481.481l-2.908,5.037a5.02,5.02,0,0,0,.657.038h2.17L138.4,100.8A11.047,11.047,0,0,0,134.027,103.791Z" transform="translate(-130.637 -100.735)"/><path class="o" d="M160.116,101.263a.625.625,0,0,0-.619-.714h-3.738l-4.972,8.612h4.769Z" transform="translate(-145.574 -100.549)"/></g></g><g transform="translate(28.071 4.742)"><rect class="l" width="10.564" height="9.438" rx="4.018"/><rect class="k" width="9.737" height="8.612" rx="2.42" transform="translate(0.413 0.669)"/><rect class="p" width="8.084" height="6.959" rx="0.559" transform="translate(0.806 1.991)"/><g class="q" transform="translate(0.413 0.669)"><path class="o" d="M209.586,100.549l-2.811,4.869v3.117a.627.627,0,0,0,.626.626h.062l4.972-8.612Z" transform="translate(-206.775 -100.549)"/><path class="o" d="M225.321,105.88v-4.7a.627.627,0,0,0-.626-.626h-1.066l-4.972,8.612h4.769Z" transform="translate(-215.583 -100.549)"/></g></g><g transform="translate(40.914 4.742)"><rect class="l" width="11.019" height="18.691" rx="5.257"/><rect class="i" width="17.864" height="10.193" rx="3.659" transform="translate(10.606 0.669) rotate(90)"/><rect class="l" width="0.434" height="18.506" transform="translate(5.293 0.185)"/><rect class="k" width="3.766" height="10.392" rx="1.883" transform="translate(1 1.324)"/><rect class="p" width="8.738" height="2.113" rx="0.559" transform="translate(3.505 2.646) rotate(90)"/><rect class="k" width="3.766" height="10.392" rx="1.883" transform="translate(6.254 1.324)"/><rect class="p" width="8.738" height="2.113" rx="0.559" transform="translate(8.759 2.646) rotate(90)"/><path class="r" d="M262.45,103.827a.744.744,0,0,0-.724-.743l-3.042,5.268v4.378a.738.738,0,0,0,.1.377l3.663-6.344Z" transform="translate(-257.684 -101.759)"/><path class="r" d="M282.759,119.442v-4.935l-3.766,6.523v.169a.744.744,0,0,0,.744.744h1.578Z" transform="translate(-272.74 -110.227)"/></g><g transform="translate(54.211 4.742)"><rect class="l" width="44.774" height="9.438" rx="4.018"/><rect class="k" width="43.947" height="8.612" rx="2.42" transform="translate(0.413 0.669)"/><rect class="p" width="42.294" height="6.959" rx="0.559" transform="translate(0.806 1.991)"/><g class="q" transform="translate(0.413 0.669)"><path class="o" d="M311.447,100.549l-3.628,6.285v1.7a.627.627,0,0,0,.626.626h2.8l4.972-8.612Z" transform="translate(-307.819 -100.549)"/><path class="o" d="M309.062,100.549h-.617a.627.627,0,0,0-.626.626V102.7Z" transform="translate(-307.819 -100.549)"/><path class="o" d="M344.475,100.549h-2.849l-4.972,8.612H339.5Z" transform="translate(-329.195 -100.549)"/></g><g class="q" transform="translate(18.117 0.669)"><path class="o" d="M411.407,100.549h-5.756l-4.972,8.612h5.756Z" transform="translate(-394.361 -100.549)"/><path class="o" d="M450.16,100.549h-3.439l-4.972,8.612h3.439Z" transform="translate(-424.807 -100.549)"/><path class="o" d="M376.256,109.161h3.439l4.972-8.612h-3.439Z" transform="translate(-376.256 -100.549)"/></g></g><g transform="translate(101.282 4.742)"><rect class="l" width="11.019" height="18.691" rx="5.257"/><rect class="i" width="17.864" height="10.193" rx="3.659" transform="translate(10.606 0.669) rotate(90)"/><rect class="l" width="0.434" height="18.506" transform="translate(5.293 0.185)"/><rect class="k" width="3.766" height="10.392" rx="1.883" transform="translate(1 1.324)"/><rect class="p" width="8.738" height="2.113" rx="0.559" transform="translate(3.505 2.646) rotate(90)"/><rect class="k" width="3.766" height="10.392" rx="1.883" transform="translate(6.254 1.324)"/><rect class="p" width="8.738" height="2.113" rx="0.559" transform="translate(8.759 2.646) rotate(90)"/><path class="r" d="M495.806,103.827a.744.744,0,0,0-.724-.743l-3.042,5.268v4.378a.74.74,0,0,0,.1.377l3.663-6.344Z" transform="translate(-491.04 -101.759)"/><path class="r" d="M516.115,119.442v-4.935l-3.766,6.523v.169a.744.744,0,0,0,.744.744h1.578Z" transform="translate(-506.096 -110.227)"/></g></g><g transform="translate(218.859 79.631)"><rect class="b" width="115.205" height="3.106" transform="translate(119.863 28.469) rotate(180)"/><g transform="translate(99.644 24.377)"><g transform="translate(0 0)"><circle class="d" cx="2.934" cy="2.934" r="2.934" transform="translate(0 5.71) rotate(-76.651)"/><circle class="e" cx="2.521" cy="2.521" r="2.521" transform="translate(1.011 1.011)"/><circle class="f" cx="2.187" cy="2.187" r="2.187" transform="translate(0.938 5.215) rotate(-77.962)"/></g><path class="c" d="M968.906,178.278h-2.034l-2.348-.607h-3.1v2.583h2.768l2.684,1.338h2.034Z" transform="translate(-959.549 -176.685)"/><rect class="g" width="4.306" height="0.805" transform="translate(1.229 0.985)"/><g transform="translate(2.475 2.475)"><path class="e" d="M965.867,184.487a1.058,1.058,0,1,1-1.058-1.058A1.058,1.058,0,0,1,965.867,184.487Z" transform="translate(-963.752 -183.429)"/><path class="d" d="M966.645,185.682a.641.641,0,1,1-.641-.641A.64.64,0,0,1,966.645,185.682Z" transform="translate(-964.947 -184.624)"/></g><rect class="b" width="1.441" height="1.751" transform="translate(7.916 2.34)"/><g transform="translate(11.652 0.002)"><circle class="d" cx="2.934" cy="2.934" r="2.934" transform="translate(0 1.348) rotate(-13.283)"/><circle class="e" cx="2.521" cy="2.521" r="2.521" transform="translate(1.009 1.009)"/><circle class="f" cx="2.187" cy="2.187" r="2.187" transform="translate(0.9 1.904) rotate(-13.283)"/></g><path class="c" d="M990.356,178.278h2.034l2.348-.607h3.1v2.583h-2.768l-2.684,1.338h-2.034Z" transform="translate(-980.999 -176.685)"/><rect class="g" width="4.306" height="0.805" transform="translate(17.486 1.79) rotate(180)"/><g transform="translate(14.125 2.475)"><path class="e" d="M1008.785,184.487a1.057,1.057,0,1,0,1.057-1.058A1.057,1.057,0,0,0,1008.785,184.487Z" transform="translate(-1008.785 -183.429)"/><path class="d" d="M1010.4,185.682a.641.641,0,1,0,.641-.641A.64.64,0,0,0,1010.4,185.682Z" transform="translate(-1009.98 -184.624)"/></g><rect class="b" width="1.441" height="1.751" transform="translate(10.799 4.091) rotate(180)"/></g><g transform="translate(5.733 24.377)"><g transform="translate(0 0)"><g transform="translate(11.65)"><circle class="d" cx="2.934" cy="2.934" r="2.934" transform="translate(0 1.355) rotate(-13.349)"/><circle class="e" cx="2.521" cy="2.521" r="2.521" transform="translate(1.011 1.011)"/><circle class="f" cx="2.187" cy="2.187" r="2.187" transform="translate(0.901 1.909) rotate(-13.332)"/></g><path class="c" d="M627.338,178.278h2.034l2.348-.607h3.1v2.583h-2.768l-2.684,1.338h-2.034Z" transform="translate(-617.981 -176.685)"/><g transform="translate(14.125 2.475)"><path class="e" d="M645.767,184.487a1.057,1.057,0,1,0,1.057-1.058A1.057,1.057,0,0,0,645.767,184.487Z" transform="translate(-645.767 -183.429)"/><path class="d" d="M647.378,185.682a.641.641,0,1,0,.641-.641A.641.641,0,0,0,647.378,185.682Z" transform="translate(-646.961 -184.624)"/></g><rect class="b" width="1.441" height="1.751" transform="translate(10.799 4.092) rotate(180)"/><g transform="translate(0 0)"><circle class="d" cx="2.934" cy="2.934" r="2.934" transform="translate(0 5.71) rotate(-76.651)"/><circle class="e" cx="2.521" cy="2.521" r="2.521" transform="translate(1.011 1.011)"/><circle class="f" cx="2.187" cy="2.187" r="2.187" transform="translate(0.901 5.156) rotate(-76.668)"/></g><path class="c" d="M605.888,178.278h-2.034l-2.348-.607h-3.1v2.583h2.768l2.684,1.338h2.034Z" transform="translate(-596.53 -176.685)"/><g transform="translate(2.475 2.475)"><path class="e" d="M602.849,184.487a1.057,1.057,0,1,1-1.058-1.058A1.057,1.057,0,0,1,602.849,184.487Z" transform="translate(-600.734 -183.429)"/><path class="d" d="M603.626,185.682a.641.641,0,1,1-.641-.641A.641.641,0,0,1,603.626,185.682Z" transform="translate(-601.928 -184.624)"/></g><rect class="b" width="1.441" height="1.751" transform="translate(7.916 2.34)"/></g><rect class="g" width="4.306" height="0.805" transform="translate(17.486 1.79) rotate(180)"/><rect class="g" width="4.306" height="0.805" transform="translate(1.229 0.985)"/></g><g transform="translate(124.087 0.458)"><rect class="b" width="3.95" height="26.993" transform="translate(0 0.458)"/><g transform="translate(0.395)"><rect class="c" width="0.478" height="27.91" rx="0.239"/><rect class="c" width="0.478" height="27.91" rx="0.239" transform="translate(0.894)"/><rect class="c" width="0.478" height="27.91" rx="0.239" transform="translate(1.788)"/><rect class="c" width="0.478" height="27.91" rx="0.239" transform="translate(2.681)"/></g></g><g transform="translate(0)"><path class="j" d="M631.053,79.631H569.007v.917H693.1v-.917Z" transform="translate(-569.007 -79.631)"/><path class="i" d="M631.053,83.174H569.007V111.19H574.3l.677-2.311a1.364,1.364,0,0,1,1.309-.981h15.642a1.364,1.364,0,0,1,1.3.965l.714,2.328h74.219l.714-2.328a1.365,1.365,0,0,1,1.3-.965h15.642a1.364,1.364,0,0,1,1.309.981l.677,2.311h5.29V83.174Z" transform="translate(-569.007 -82.257)"/><rect class="h" width="69" height="2.018" transform="translate(0 20.752)"/><rect class="h" width="69" height="1.24" transform="translate(0 17.915)"/><rect class="h" width="67.127" height="2.018" transform="translate(56.964 20.752)"/><rect class="h" width="67.127" height="1.24" transform="translate(56.964 17.915)"/><path class="l" d="M631.053,176.174H569.007v3.958H574.3l.677-2.311a1.364,1.364,0,0,1,1.309-.981h15.642a1.364,1.364,0,0,1,1.3.965l.714,2.328h74.219l.714-2.328a1.365,1.365,0,0,1,1.3-.965h15.642a1.364,1.364,0,0,1,1.309.981l.677,2.311h5.29v-3.958Z" transform="translate(-569.007 -151.199)"/><path class="n" d="M631.053,83.174H569.007v2.632H693.1V83.174Z" transform="translate(-569.007 -82.257)"/><path class="o" d="M599.479,93.28q-11.982.03-23.962-.164a.129.129,0,0,0,0,.259q11.98.194,23.962.164A.129.129,0,0,0,599.479,93.28Z" transform="translate(-573.74 -89.627)"/><path class="o" d="M601.077,90l-10.186-.2a.129.129,0,0,0,0,.259l10.186.2A.129.129,0,0,0,601.077,90Z" transform="translate(-585.137 -87.169)"/><path class="o" d="M769.754,93.658l-26.895-.068-7.592-.019a.129.129,0,0,0,0,.259l26.895.068,7.592.019A.129.129,0,0,0,769.754,93.658Z" transform="translate(-692.163 -89.965)"/><path class="o" d="M917.66,92.812l-27.377.015-7.84,0a.129.129,0,0,0,.005.259l27.377-.015,7.84,0A.129.129,0,0,0,917.66,92.812Z" transform="translate(-801.268 -89.402)"/><path class="o" d="M690.341,140.767q-15.62-.092-31.24.058-4.389.043-8.778.1a.129.129,0,0,0,0,.259q15.619-.218,31.239-.2,4.389.007,8.778.033A.129.129,0,0,0,690.341,140.767Z" transform="translate(-629.195 -124.926)"/><path class="o" d="M829.605,140.51l-16.152-.155a.129.129,0,0,0,0,.259l16.152.155A.129.129,0,0,0,829.605,140.51Z" transform="translate(-750.123 -124.646)"/><path class="o" d="M772.078,144.336l-19.935-.038a.129.129,0,0,0,0,.259l19.935.038A.129.129,0,0,0,772.078,144.336Z" transform="translate(-704.674 -127.569)"/><g transform="translate(19.258 4.742)"><path class="l" d="M727.986,97.963h-83.5A1.039,1.039,0,0,0,643.451,99v7.36a1.039,1.039,0,0,0,1.039,1.039h83.5a1.039,1.039,0,0,0,1.039-1.039V99A1.039,1.039,0,0,0,727.986,97.963Z" transform="translate(-643.451 -97.963)"/><rect class="k" width="84.748" height="8.612" rx="2.42" transform="translate(0.413 0.669)"/><rect class="p" width="83.095" height="6.959" rx="0.559" transform="translate(0.806 1.992)"/><g class="q" transform="translate(5.778 0.669)"><path class="o" d="M750.7,100.549h-3.988l-4.972,8.612h3.987Z" transform="translate(-722.089 -100.549)"/><path class="o" d="M705.756,100.549H699.08l-4.972,8.612h6.675Z" transform="translate(-686.782 -100.549)"/><path class="o" d="M665.786,109.161h3.988l4.972-8.612h-3.987Z" transform="translate(-665.786 -100.549)"/></g><g class="q" transform="translate(47.462 0.669)"><path class="o" d="M911.828,100.549H907.84l-4.972,8.612h3.988Z" transform="translate(-883.22 -100.549)"/><path class="o" d="M866.887,100.549h-6.675l-4.972,8.612h6.675Z" transform="translate(-847.913 -100.549)"/><path class="o" d="M826.918,109.161h3.988l4.972-8.612H831.89Z" transform="translate(-826.918 -100.549)"/></g></g><g transform="translate(5.942 4.742)"><rect class="l" width="11.019" height="18.691" rx="5.257"/><path class="i" d="M3.66,0H14.2a3.659,3.659,0,0,1,3.659,3.659V6.533A3.659,3.659,0,0,1,14.2,10.193H3.659A3.659,3.659,0,0,1,0,6.533V3.66A3.66,3.66,0,0,1,3.66,0Z" transform="translate(10.606 0.669) rotate(90)"/><rect class="l" width="0.434" height="18.506" transform="translate(5.293 0.185)"/><rect class="k" width="3.766" height="10.392" rx="1.883" transform="translate(1 1.324)"/><rect class="p" width="8.738" height="2.113" rx="0.559" transform="translate(3.505 2.646) rotate(90)"/><rect class="k" width="3.766" height="10.392" rx="1.883" transform="translate(6.253 1.324)"/><rect class="p" width="8.738" height="2.113" rx="0.559" transform="translate(8.759 2.646) rotate(90)"/><path class="r" d="M599.606,103.827a.744.744,0,0,0-.724-.743l-3.042,5.268v4.378a.738.738,0,0,0,.1.377l3.663-6.344Z" transform="translate(-594.84 -101.759)"/><path class="r" d="M619.915,119.442v-4.935l-3.766,6.523v.169a.744.744,0,0,0,.744.744h1.578Z" transform="translate(-609.896 -110.227)"/></g><g transform="translate(107.13 4.742)"><rect class="l" width="11.019" height="18.691" rx="5.257"/><rect class="i" width="17.864" height="10.193" rx="3.659" transform="translate(10.606 0.669) rotate(90)"/><rect class="l" width="0.434" height="18.506" transform="translate(5.293 0.185)"/><rect class="k" width="3.766" height="10.392" rx="1.883" transform="translate(1 1.324)"/><rect class="p" width="8.738" height="2.113" rx="0.559" transform="translate(3.505 2.646) rotate(90)"/><rect class="k" width="3.766" height="10.392" rx="1.883" transform="translate(6.254 1.324)"/><rect class="p" width="8.738" height="2.113" rx="0.559" transform="translate(8.759 2.646) rotate(90)"/><path class="r" d="M990.753,103.827a.744.744,0,0,0-.724-.743l-3.042,5.268v4.378a.741.741,0,0,0,.1.377l3.663-6.344Z" transform="translate(-985.987 -101.759)"/><path class="r" d="M1011.063,119.442v-4.935l-3.766,6.523v.169a.744.744,0,0,0,.744.744h1.578Z" transform="translate(-1001.043 -110.227)"/></g></g></g><g transform="translate(346.896 79.631)"><rect class="b" width="115.205" height="3.106" transform="translate(119.863 28.469) rotate(180)"/><g transform="translate(99.027 23.76)"><g transform="translate(0 0)"><circle class="d" cx="2.934" cy="2.934" r="2.934" transform="translate(0 4.15) rotate(-45)"/><circle class="e" cx="2.521" cy="2.521" r="2.521" transform="translate(1.629 1.629)"/><circle class="f" cx="2.187" cy="2.187" r="2.187" transform="translate(1.058 4.15) rotate(-45)"/></g><path class="c" d="M1463.836,178.278H1461.8l-2.348-.607h-3.1v2.583h2.768l2.684,1.338h2.034Z" transform="translate(-1453.861 -176.068)"/><rect class="g" width="4.306" height="0.805" transform="translate(1.846 1.603)"/><g transform="translate(3.092 3.092)"><path class="e" d="M1460.8,184.487a1.057,1.057,0,1,1-1.058-1.058A1.057,1.057,0,0,1,1460.8,184.487Z" transform="translate(-1458.682 -183.429)"/><path class="d" d="M1461.574,185.682a.641.641,0,1,1-.641-.641A.641.641,0,0,1,1461.574,185.682Z" transform="translate(-1459.876 -184.624)"/></g><rect class="b" width="1.441" height="1.751" transform="translate(8.533 2.957)"/><g transform="translate(11.65 0)"><circle class="d" cx="2.934" cy="2.934" r="2.934" transform="translate(0 4.15) rotate(-45)"/><circle class="e" cx="2.521" cy="2.521" r="2.521" transform="translate(1.629 1.629)"/><circle class="f" cx="2.187" cy="2.187" r="2.187" transform="translate(1.058 4.15) rotate(-45)"/></g><path class="c" d="M1485.286,178.278h2.034l2.348-.607h3.1v2.583H1490l-2.684,1.338h-2.034Z" transform="translate(-1475.311 -176.068)"/><rect class="g" width="4.306" height="0.805" transform="translate(18.103 2.407) rotate(180)"/><g transform="translate(14.742 3.092)"><path class="e" d="M1503.715,184.487a1.057,1.057,0,1,0,1.058-1.058A1.058,1.058,0,0,0,1503.715,184.487Z" transform="translate(-1503.715 -183.429)"/><path class="d" d="M1505.326,185.682a.641.641,0,1,0,.641-.641A.641.641,0,0,0,1505.326,185.682Z" transform="translate(-1504.909 -184.624)"/></g><rect class="b" width="1.441" height="1.751" transform="translate(11.416 4.709) rotate(180)"/></g><g transform="translate(5.898 23.76)"><g transform="translate(0 0)"><g transform="translate(10.867)"><circle class="d" cx="2.934" cy="2.934" r="2.934" transform="translate(0 4.15) rotate(-45)"/><circle class="e" cx="2.521" cy="2.521" r="2.521" transform="translate(1.629 1.629)"/><circle class="f" cx="2.187" cy="2.187" r="2.187" transform="translate(1.058 4.15) rotate(-45)"/></g><path class="c" d="M1122.268,178.278h2.034l2.348-.607h3.1v2.583h-2.768l-2.684,1.338h-2.034Z" transform="translate(-1113.076 -176.068)"/><g transform="translate(13.959 3.092)"><path class="e" d="M1140.7,184.487a1.057,1.057,0,1,0,1.057-1.058A1.058,1.058,0,0,0,1140.7,184.487Z" transform="translate(-1140.696 -183.429)"/><path class="d" d="M1142.308,185.682a.641.641,0,1,0,.641-.641A.64.64,0,0,0,1142.308,185.682Z" transform="translate(-1141.891 -184.624)"/></g><rect class="b" width="1.441" height="1.751" transform="translate(10.633 4.709) rotate(180)"/><g transform="translate(0 0.783)"><circle class="d" cx="2.934" cy="2.934" r="2.934" transform="matrix(0.16, -0.987, 0.987, 0.16, 0, 5.793)"/><circle class="e" cx="2.521" cy="2.521" r="2.521" transform="translate(0.845 0.845)"/><circle class="f" cx="2.187" cy="2.187" r="2.187" transform="translate(0.274 3.366) rotate(-45)"/></g><path class="c" d="M1100.817,178.278h-2.034l-2.348-.607h-3.1v2.583h2.768l2.684,1.338h2.034Z" transform="translate(-1091.626 -176.068)"/><g transform="translate(2.309 3.092)"><path class="e" d="M1097.778,184.487a1.058,1.058,0,1,1-1.058-1.058A1.057,1.057,0,0,1,1097.778,184.487Z" transform="translate(-1095.663 -183.429)"/><path class="d" d="M1098.556,185.682a.641.641,0,1,1-.641-.641A.64.64,0,0,1,1098.556,185.682Z" transform="translate(-1096.858 -184.624)"/></g><rect class="b" width="1.441" height="1.751" transform="translate(7.75 2.957)"/></g><rect class="g" width="4.306" height="0.805" transform="translate(17.32 2.407) rotate(180)"/><rect class="g" width="4.306" height="0.805" transform="translate(1.063 1.603)"/></g><path class="j" d="M1125.983,79.631h-62.046v.917h124.091v-.917Z" transform="translate(-1063.937 -79.631)"/><path class="i" d="M1125.983,83.174h-62.046V111.19h5.29l.677-2.311a1.364,1.364,0,0,1,1.31-.981h15.642a1.365,1.365,0,0,1,1.3.965l.714,2.328h74.219l.714-2.328a1.364,1.364,0,0,1,1.3-.965h15.642a1.365,1.365,0,0,1,1.31.981l.677,2.311h5.29V83.174Z" transform="translate(-1063.937 -82.257)"/><rect class="h" width="56.964" height="2.018" transform="translate(0 20.752)"/><rect class="h" width="56.964" height="1.24" transform="translate(0 17.915)"/><rect class="h" width="67.127" height="2.018" transform="translate(56.964 20.752)"/><rect class="h" width="67.127" height="1.24" transform="translate(56.964 17.915)"/><path class="l" d="M1125.983,176.174h-62.046v3.958h5.29l.677-2.311a1.364,1.364,0,0,1,1.31-.981h15.642a1.365,1.365,0,0,1,1.3.965l.714,2.328h74.219l.714-2.328a1.364,1.364,0,0,1,1.3-.965h15.642a1.365,1.365,0,0,1,1.31.981l.677,2.311h5.29v-3.958Z" transform="translate(-1063.937 -151.199)"/><path class="n" d="M1125.983,83.174h-62.046v2.632h124.091V83.174Z" transform="translate(-1063.937 -82.257)"/><path class="o" d="M1094.409,93.28q-11.982.03-23.962-.164a.129.129,0,0,0,0,.259q11.979.194,23.962.164A.129.129,0,0,0,1094.409,93.28Z" transform="translate(-1068.67 -89.627)"/><path class="o" d="M1096.007,90l-10.186-.2a.129.129,0,0,0,0,.259l10.186.2A.129.129,0,0,0,1096.007,90Z" transform="translate(-1080.067 -87.169)"/><path class="o" d="M1264.683,93.658l-26.895-.068-7.593-.019a.129.129,0,0,0,0,.259l26.9.068,7.592.019A.129.129,0,0,0,1264.683,93.658Z" transform="translate(-1187.093 -89.965)"/><path class="o" d="M1412.59,92.812l-27.377.015-7.84,0a.129.129,0,0,0,.005.259l27.377-.015,7.84,0A.129.129,0,0,0,1412.59,92.812Z" transform="translate(-1296.198 -89.402)"/><path class="o" d="M1185.271,140.767q-15.62-.092-31.24.058-4.389.043-8.777.1a.129.129,0,0,0,0,.259q15.618-.218,31.239-.2,4.389.007,8.778.033A.129.129,0,0,0,1185.271,140.767Z" transform="translate(-1124.125 -124.926)"/><path class="o" d="M1324.535,140.51l-16.152-.155a.129.129,0,0,0,0,.259l16.152.155A.129.129,0,0,0,1324.535,140.51Z" transform="translate(-1245.053 -124.646)"/><path class="o" d="M1267.008,144.336l-19.935-.038a.129.129,0,0,0,0,.259l19.935.038A.129.129,0,0,0,1267.008,144.336Z" transform="translate(-1199.603 -127.569)"/><g transform="translate(19.258 4.742)"><path class="l" d="M1222.916,97.963h-83.5A1.039,1.039,0,0,0,1138.381,99v7.36a1.039,1.039,0,0,0,1.039,1.039h83.5a1.04,1.04,0,0,0,1.039-1.039V99A1.04,1.04,0,0,0,1222.916,97.963Z" transform="translate(-1138.381 -97.963)"/><rect class="k" width="84.748" height="8.612" rx="2.42" transform="translate(0.413 0.669)"/><rect class="p" width="83.095" height="6.959" rx="0.559" transform="translate(0.806 1.992)"/><g class="q" transform="translate(5.778 0.669)"><path class="o" d="M1245.626,100.549h-3.988l-4.972,8.612h3.988Z" transform="translate(-1217.018 -100.549)"/><path class="o" d="M1200.685,100.549h-6.675l-4.972,8.612h6.675Z" transform="translate(-1181.711 -100.549)"/><path class="o" d="M1160.716,109.161h3.988l4.972-8.612h-3.988Z" transform="translate(-1160.716 -100.549)"/></g><g class="q" transform="translate(47.462 0.669)"><path class="o" d="M1406.758,100.549h-3.988l-4.972,8.612h3.988Z" transform="translate(-1378.15 -100.549)"/><path class="o" d="M1361.817,100.549h-6.675l-4.972,8.612h6.675Z" transform="translate(-1342.843 -100.549)"/><path class="o" d="M1321.847,109.161h3.988l4.972-8.612h-3.988Z" transform="translate(-1321.847 -100.549)"/></g></g><g transform="translate(5.942 4.742)"><rect class="l" width="11.019" height="18.691" rx="5.257"/><rect class="i" width="17.864" height="10.193" rx="3.659" transform="translate(10.606 0.669) rotate(90)"/><rect class="l" width="0.434" height="18.506" transform="translate(5.293 0.185)"/><rect class="k" width="3.766" height="10.392" rx="1.883" transform="translate(1 1.324)"/><rect class="p" width="8.738" height="2.113" rx="0.559" transform="translate(3.505 2.646) rotate(90)"/><rect class="k" width="3.766" height="10.392" rx="1.883" transform="translate(6.254 1.324)"/><rect class="p" width="8.738" height="2.113" rx="0.559" transform="translate(8.759 2.646) rotate(90)"/><path class="r" d="M1094.536,103.827a.744.744,0,0,0-.725-.743l-3.042,5.268v4.378a.738.738,0,0,0,.1.377l3.663-6.344Z" transform="translate(-1089.77 -101.759)"/><path class="r" d="M1114.845,119.442v-4.935l-3.766,6.523v.169a.744.744,0,0,0,.744.744h1.578Z" transform="translate(-1104.825 -110.227)"/></g><g transform="translate(107.13 4.742)"><rect class="l" width="11.019" height="18.691" rx="5.257"/><rect class="i" width="17.864" height="10.193" rx="3.659" transform="translate(10.606 0.669) rotate(90)"/><rect class="l" width="0.434" height="18.506" transform="translate(5.293 0.185)"/><rect class="k" width="3.766" height="10.392" rx="1.883" transform="translate(1 1.324)"/><rect class="p" width="8.738" height="2.113" rx="0.559" transform="translate(3.505 2.646) rotate(90)"/><rect class="k" width="3.766" height="10.392" rx="1.883" transform="translate(6.254 1.324)"/><rect class="p" width="8.738" height="2.113" rx="0.559" transform="translate(8.759 2.646) rotate(90)"/><path class="r" d="M1485.683,103.827a.744.744,0,0,0-.724-.743l-3.042,5.268v4.378a.738.738,0,0,0,.1.377l3.663-6.344Z" transform="translate(-1480.917 -101.759)"/><path class="r" d="M1505.992,119.442v-4.935l-3.766,6.523v.169a.744.744,0,0,0,.744.744h1.578Z" transform="translate(-1495.973 -110.227)"/></g></g></g><g class="a" transform="translate(-1805.129 66.391)"><g transform="translate(1824.243 1431.365)"><rect class="s" width="0.517" height="31.244" transform="translate(0 0)"/><rect class="t" width="0.517" height="12.165" transform="translate(0 0)"/></g><g transform="translate(1814.129 1424.209)"><g transform="translate(0 0)"><circle class="u" cx="7.334" cy="7.334" r="7.334" transform="translate(0 10.372) rotate(-45)"/><g transform="translate(3.767 3.767)"><path d="M1859.614,1476.305a6.606,6.606,0,1,1,6.608-6.761h0a6.613,6.613,0,0,1-6.448,6.759Zm.006-12.867-.149,0a6.261,6.261,0,1,0,6.406,6.112h0A6.268,6.268,0,0,0,1859.62,1463.438Z" transform="translate(-1853.013 -1463.094)"/></g><path d="M1878.116,1479.162l-3.986,3.986-3.987-3.987a6.472,6.472,0,0,0-1.062,1.062l3.986,3.987-3.987,3.987a6.474,6.474,0,0,0,1.063,1.062l3.987-3.987,3.987,3.987a6.493,6.493,0,0,0,1.062-1.062l-3.987-3.987,3.987-3.987A6.46,6.46,0,0,0,1878.116,1479.162Z" transform="translate(-1863.758 -1473.839)"/><g transform="translate(4.925 8.992)"><path d="M1866.517,1519.459l-.469-.678h-.518v.678h-.563v-2.433h1.053a1.357,1.357,0,0,1,.562.108.806.806,0,0,1,.5.775.792.792,0,0,1-.5.768l.546.782Zm-.142-1.865a.592.592,0,0,0-.386-.11h-.459v.849h.459a.586.586,0,0,0,.386-.111.439.439,0,0,0,0-.628Z" transform="translate(-1864.967 -1517.026)"/><g transform="translate(8.74)"><path d="M1956.736,1519.459l-.469-.678h-.518v.678h-.563v-2.433h1.053a1.355,1.355,0,0,1,.562.108.806.806,0,0,1,.5.775.792.792,0,0,1-.5.768l.546.782Zm-.142-1.865a.593.593,0,0,0-.386-.11h-.459v.849h.459a.586.586,0,0,0,.386-.111.439.439,0,0,0,0-.628Z" transform="translate(-1955.186 -1517.026)"/></g></g></g><path class="o" d="M1850.091,1489.622a7.213,7.213,0,0,0-1.03,5.968.049.049,0,0,0,.094-.026,7.119,7.119,0,0,1,1.02-5.893C1850.21,1489.62,1850.126,1489.571,1850.091,1489.622Z" transform="translate(-1845.454 -1483.266)"/><path class="o" d="M1871.772,1461.09a6.581,6.581,0,0,0-3.8,2.119c-.041.047.027.115.069.068a6.5,6.5,0,0,1,3.762-2.094C1871.859,1461.173,1871.833,1461.08,1871.772,1461.09Z" transform="translate(-1862.74 -1457.517)"/><path class="o" d="M1926.491,1483.669l-2.47,2.57c-.043.045.025.113.068.068l2.47-2.57C1926.6,1483.692,1926.534,1483.624,1926.491,1483.669Z" transform="translate(-1913.363 -1477.895)"/><path class="o" d="M1933.124,1492.691l-.434.465c-.042.046.026.114.068.069l.434-.465C1933.235,1492.714,1933.167,1492.645,1933.124,1492.691Z" transform="translate(-1921.192 -1486.043)"/><path class="o" d="M1922.937,1583.391a3.284,3.284,0,0,1-1.325.624,6.552,6.552,0,0,1-1.51.241c-.062,0-.062.1,0,.1a6.663,6.663,0,0,0,1.621-.27,3.279,3.279,0,0,0,1.283-.624C1923.052,1583.418,1922.983,1583.349,1922.937,1583.391Z" transform="translate(-1909.793 -1567.959)"/><path class="o" d="M1934.325,1585.817a1.314,1.314,0,0,1-.48.18c-.061.01-.035.1.026.093a1.389,1.389,0,0,0,.5-.19C1934.427,1585.868,1934.378,1585.784,1934.325,1585.817Z" transform="translate(-1922.216 -1570.154)"/><path class="o" d="M1982.013,1529.627a8.01,8.01,0,0,1-1.038,3.648.048.048,0,0,0,.084.049,8.12,8.12,0,0,0,1.052-3.7C1982.112,1529.565,1982.016,1529.565,1982.013,1529.627Z" transform="translate(-1964.806 -1519.373)"/><path class="o" d="M1988.453,1509.924c-.014-.061-.107-.035-.093.026a10.215,10.215,0,0,1,.193,1.131c.007.061.1.062.1,0A10.444,10.444,0,0,0,1988.453,1509.924Z" transform="translate(-1971.48 -1501.589)"/></g></g></g></svg>