<svg xmlns="http://www.w3.org/2000/svg" width="9.068" height="10" viewBox="0 0 9.068 10"><defs><style>.a{fill:#ec1c23;}</style></defs><path class="a" d="M10.732,4.615a5.157,5.157,0,0,1-.166,1.119,3.237,3.237,0,0,1-.435.982,2.3,2.3,0,0,1-.737.7,2.081,2.081,0,0,1-1.077.266,1.561,1.561,0,0,1-.779-.191,1.333,1.333,0,0,1-.526-.539A1.668,1.668,0,0,1,5.6,7.659,1.435,1.435,0,0,1,4.369,7a2.168,2.168,0,0,1-.306-.767,3.309,3.309,0,0,1-.04-1A4.65,4.65,0,0,1,4.328,4a3.332,3.332,0,0,1,.564-.939,2.384,2.384,0,0,1,.775-.6,2.162,2.162,0,0,1,.942-.209,2.93,2.93,0,0,1,.564.048,2.307,2.307,0,0,1,.437.131,2.365,2.365,0,0,1,.362.191c.111.071.222.145.332.22L8.031,5.995a1.047,1.047,0,0,0,.008.369.516.516,0,0,0,.112.227.4.4,0,0,0,.182.119.677.677,0,0,0,.641-.126,1.366,1.366,0,0,0,.344-.437,2.817,2.817,0,0,0,.231-.657,4.51,4.51,0,0,0,.1-.819,5.231,5.231,0,0,0-.129-1.53,3.041,3.041,0,0,0-.566-1.184,2.629,2.629,0,0,0-1.015-.762A3.683,3.683,0,0,0,6.463.924,3.264,3.264,0,0,0,5,1.242a3.355,3.355,0,0,0-1.111.884,4.24,4.24,0,0,0-.727,1.329,5.99,5.99,0,0,0-.306,1.656A5.507,5.507,0,0,0,3.013,6.8,3.052,3.052,0,0,0,3.63,8.012a2.576,2.576,0,0,0,1.046.727,4.012,4.012,0,0,0,1.443.241,4.944,4.944,0,0,0,.947-.1c.156-.031.3-.069.446-.11A3.353,3.353,0,0,0,7.9,8.631l.2.891a2.2,2.2,0,0,1-.429.212,4.132,4.132,0,0,1-.507.147A4.951,4.951,0,0,1,6.1,10a5.558,5.558,0,0,1-1.932-.311,3.556,3.556,0,0,1-1.408-.926,3.889,3.889,0,0,1-.845-1.529,6.522,6.522,0,0,1-.236-2.123,6.474,6.474,0,0,1,.406-2.037A5.042,5.042,0,0,1,3.06,1.455,4.459,4.459,0,0,1,4.553.387,4.674,4.674,0,0,1,6.486,0,4.88,4.88,0,0,1,8.36.336a3.644,3.644,0,0,1,1.352.944,3.872,3.872,0,0,1,.8,1.458A5.574,5.574,0,0,1,10.732,4.615Zm-5.366.612a2.126,2.126,0,0,0,.11,1.054.565.565,0,0,0,.544.356A.6.6,0,0,0,6.205,6.6a.664.664,0,0,0,.214-.129,1.144,1.144,0,0,0,.217-.262,2.014,2.014,0,0,0,.2-.444l.214-2.447a1.277,1.277,0,0,0-.332-.044,1.149,1.149,0,0,0-.553.127,1.1,1.1,0,0,0-.392.372,2.187,2.187,0,0,0-.26.612,5.2,5.2,0,0,0-.147.837Z" transform="translate(-1.67)"/></svg>