<svg xmlns="http://www.w3.org/2000/svg" width="22.969" height="24" viewBox="0 0 22.969 24"><defs><style>.a{fill:#27a3ff;}.b{fill:#f9cfa9;}.c{fill:#3d4ec6;}.d{fill:#2b3894;}.e{fill:#e6f7fe;}.f{fill:#d5f1fe;}.g{fill:#11dfef;}.h{fill:#f948b4;}.i{fill:#e00e8b;}.j{fill:#fc7acd;}.k{fill:#fbbc8d;}</style></defs><g transform="translate(-0.001)"><path class="a" d="M12.256,44.924l6.509-2.573a11.486,11.486,0,1,0-7.279,2.6c.259,0,.516-.009.771-.026Zm0,0" transform="translate(0 -20.95)"/><path class="b" d="M169.6,126.179a6.222,6.222,0,0,0-.578-3.274c-1.29-2.624-.994-2.814-1.034-5.419a.963.963,0,1,0-1.927,0v9.686a2.137,2.137,0,0,1-.046.438V129a2.122,2.122,0,0,1-2.119,2.119h-5.273a7.483,7.483,0,0,0,3.2,2.543l.024.01a3.142,3.142,0,0,1,1.676,1.691,11.632,11.632,0,0,0,6.623-2.621l-.718-2.637a3.367,3.367,0,0,1-.107-1.158Zm0,0" transform="translate(-151.312 -111.387)"/><path class="b" d="M40.183,105.863l-.293-.272a1.121,1.121,0,0,0-1.524,1.645l1.817,1.684Zm0,0" transform="translate(-36.194 -100.373)"/><path class="c" d="M92.2,0H83.965a1.423,1.423,0,0,0-1.45,1.391V18.05a1.423,1.423,0,0,0,1.45,1.391H92.2a1.423,1.423,0,0,0,1.45-1.391V1.391A1.423,1.423,0,0,0,92.2,0Zm0,0" transform="translate(-78.709)"/><path class="d" d="M85.3,1.032A.679.679,0,0,1,85.179.64a.7.7,0,0,1,.43-.64H83.961a1.421,1.421,0,0,0-1.45,1.391V18.05a1.421,1.421,0,0,0,1.45,1.391h1.751V2.251a2.131,2.131,0,0,0-.41-1.219Zm0,0" transform="translate(-78.654 0)"/><path class="e" d="M100.109,191.977v9.654a.611.611,0,0,0,.61.611h8.239a.611.611,0,0,0,.61-.611v-9.654Zm0,0" transform="translate(-95.472 -183.093)"/><path class="f" d="M100.109,191.977v9.654a.611.611,0,0,0,.61.611h1.444V191.977Zm0,0" transform="translate(-95.424 -183.093)"/><path class="c" d="M131.487,233.933a.956.956,0,1,1-.956-.957A.956.956,0,0,1,131.487,233.933Zm0,0" transform="translate(-123.509 -222.072)"/><path class="c" d="M131.487,308.289a.956.956,0,1,1-.956-.956A.957.957,0,0,1,131.487,308.289Zm0,0" transform="translate(-123.509 -292.948)"/><path class="d" d="M130.422,233.113a.956.956,0,1,0,.9,1.487A.957.957,0,0,1,130.422,233.113Zm0,0" transform="translate(-123.508 -222.202)"/><path class="d" d="M130.422,307.469a.956.956,0,1,0,.9,1.487A.957.957,0,0,1,130.422,307.469Zm0,0" transform="translate(-123.508 -293.078)"/><g transform="translate(9.142 10.708)"><path class="g" d="M197.313,230.411h-1.358a.358.358,0,1,1,0-.716h1.358a.358.358,0,1,1,0,.716Zm0,0" transform="translate(-195.597 -229.695)"/><path class="g" d="M198.671,262.083h-2.716a.358.358,0,1,1,0-.716h2.716a.358.358,0,0,1,0,.716Zm0,0" transform="translate(-195.597 -259.856)"/><path class="g" d="M197.313,304.762h-1.358a.358.358,0,1,1,0-.715h1.358a.358.358,0,1,1,0,.715Zm0,0" transform="translate(-195.597 -300.5)"/><path class="g" d="M198.671,336.434h-2.716a.358.358,0,1,1,0-.716h2.716a.358.358,0,0,1,0,.716Zm0,0" transform="translate(-195.597 -330.662)"/></g><path class="h" d="M108.857,17.6h-1.224a.209.209,0,0,0-.209.209.505.505,0,0,1-.5.5h-4.364a.505.505,0,0,1-.5-.5.209.209,0,0,0-.209-.209h-1.224a.611.611,0,0,0-.611.61v7.8h9.46v-7.8a.611.611,0,0,0-.611-.61Zm0,0" transform="translate(-95.376 -16.758)"/><path class="i" d="M102.067,17.927a.5.5,0,0,1-.015-.121.209.209,0,0,0-.209-.209h-1.224a.611.611,0,0,0-.611.61v7.8h2.059Zm0,0" transform="translate(-95.327 -16.758)"/><path class="j" d="M198.794,17.6h-1.224a.209.209,0,0,0-.209.209.5.5,0,0,1-.5.5H194.45l4.955,6.211V18.208a.611.611,0,0,0-.611-.61Zm0,0" transform="translate(-185.377 -16.758)"/><path class="j" d="M126.84,62.923h-1.65a.358.358,0,1,1,0-.716h1.65a.358.358,0,0,1,0,.716Zm0,0" transform="translate(-118.991 -59.24)"/><path class="b" d="M50.965,177.807a.983.983,0,0,1-1.388.053l-1.645-1.525a.982.982,0,0,1,1.335-1.441l1.645,1.525A.983.983,0,0,1,50.965,177.807Zm0,0" transform="translate(-45.345 -166.471)"/><path class="k" d="M74.423,197.608l-.783-.725a1.153,1.153,0,0,1-1.335,1.441l.783.725a.982.982,0,0,0,1.335-1.441Zm0,0" transform="translate(-68.826 -187.672)"/><path class="b" d="M50.965,233.983a.982.982,0,0,1-1.388.053l-1.645-1.525a.982.982,0,1,1,1.335-1.441l1.645,1.525A.982.982,0,0,1,50.965,233.983Zm0,0" transform="translate(-45.345 -220.021)"/><path class="b" d="M50.965,290.155a.982.982,0,0,1-1.388.053l-1.645-1.525a.982.982,0,1,1,1.335-1.441l1.645,1.525A.983.983,0,0,1,50.965,290.155Zm0,0" transform="translate(-45.345 -273.568)"/><path class="k" d="M209.993,389.805a3.385,3.385,0,0,1-.1-.571,7.839,7.839,0,0,1-8.675,3.514,7.474,7.474,0,0,0,1.173.615l.024.01a3.141,3.141,0,0,1,1.676,1.691,11.632,11.632,0,0,0,6.623-2.621Zm0,0" transform="translate(-191.896 -371.09)"/><path class="k" d="M74.423,253.784l-.783-.725A1.153,1.153,0,0,1,72.3,254.5l.783.725a.982.982,0,1,0,1.335-1.441Zm0,0" transform="translate(-68.826 -241.22)"/><path class="k" d="M74.423,309.956l-.783-.725a1.153,1.153,0,0,1-1.335,1.441l.783.725a.982.982,0,0,0,1.335-1.441Zm0,0" transform="translate(-68.826 -294.764)"/></g></svg>