<svg xmlns="http://www.w3.org/2000/svg" width="40" height="40" viewBox="0 0 40 40"><defs><style>.a{fill:#e9f2fc;}.b{fill:#ff9801;}.c{fill:#f57c00;}.d{fill:#ffe0b2;}.e{fill:#dfc49c;}.f{fill:#ffdc00;}</style></defs><g transform="translate(-326.5 -817)"><circle class="a" cx="20" cy="20" r="20" transform="translate(326.5 817)"/><g transform="translate(336.575 826.095)"><g transform="translate(0 0)"><rect class="b" width="4.614" height="9.228" rx="2.307" transform="translate(0 12.92)"/><path class="c" d="M7.145,33H6a1.145,1.145,0,0,1,1.145,1.145V41.78A1.145,1.145,0,0,1,6,42.925H7.145A1.145,1.145,0,0,0,8.29,41.78V34.145A1.145,1.145,0,0,0,7.145,33Z" transform="translate(-3.71 -20.402)"/><path class="d" d="M24.6,28.834h-.763a1.145,1.145,0,0,1,0,2.29h-.763a1.145,1.145,0,1,1,0,2.29H16.2a4.592,4.592,0,0,1-1.71-.3c-.374-.149-.7-.389-1.065-.565a2.856,2.856,0,0,0-1.233-.279H12V24.634a4.059,4.059,0,0,0,2.191-.645c1.378-.878,3.466-2.474,3.016-4.5-.153-.683-.21-1.351.519-1.722a1.5,1.5,0,0,1,1.962.771c1.271,2.226-.951,5.719-.951,5.719h5.478a1.145,1.145,0,1,1,0,2.29H24.6a1.145,1.145,0,0,1,0,2.29Z" transform="translate(-7.419 -10.892)"/><path class="e" d="M41.482,39.245a1.145,1.145,0,0,0-.809-1.955H40.29a1.145,1.145,0,0,0,0-2.29H39.145a1.145,1.145,0,1,1,0,2.29h.382a1.145,1.145,0,0,1,0,2.29h-.763a1.145,1.145,0,0,1,0,2.29H38a1.145,1.145,0,1,1,0,2.29h1.145a1.145,1.145,0,1,0,0-2.29h.763a1.145,1.145,0,1,0,0-2.29h.763A1.143,1.143,0,0,0,41.482,39.245Z" transform="translate(-23.494 -21.639)"/><path class="e" d="M27.842,18.536c.848,1.485.141,3.535-.423,4.734a.687.687,0,0,0,.618.985s2.222-3.493.951-5.719a1.5,1.5,0,0,0-1.947-.778,1.941,1.941,0,0,1,.8.778Z" transform="translate(-16.718 -10.893)"/><path class="f" d="M36.879,4.817c-3.44,0-3.44-3.817-3.44-3.817s0,3.817-3.439,3.817c3.439,0,3.439,3.817,3.439,3.817s0-3.817,3.44-3.817Z" transform="translate(-18.548 -0.618)"/><path class="f" d="M10.581,15.672C8.29,15.672,8.29,13,8.29,13s0,2.672-2.29,2.672c2.29,0,2.29,2.672,2.29,2.672S8.29,15.672,10.581,15.672Z" transform="translate(-3.71 -8.037)"/><path d="M18.706,27.063a1.522,1.522,0,0,0-.751-1.307,1.509,1.509,0,0,0,.369-.983A1.527,1.527,0,0,0,16.8,23.246H11.975c.6-1.137,1.682-3.678.626-5.527a1.865,1.865,0,0,0-2.466-.922,1.711,1.711,0,0,0-.719,2.145c.3,1.33-.662,2.71-2.847,4.1A3.7,3.7,0,0,1,4.9,23.6a1.524,1.524,0,0,0-1.466-1.122H1.527A1.527,1.527,0,0,0,0,24.009v7.635a1.527,1.527,0,0,0,1.527,1.527H3.436a1.527,1.527,0,0,0,1.47-1.138,2.494,2.494,0,0,1,.935.236c.147.07.288.153.429.234a5.257,5.257,0,0,0,.657.34,4.992,4.992,0,0,0,1.852.328h6.871a1.527,1.527,0,0,0,1.265-2.381,1.52,1.52,0,0,0,.763-2.29,1.511,1.511,0,0,0,1.025-1.437ZM3.436,32.408H1.527a.763.763,0,0,1-.763-.763V24.009a.763.763,0,0,1,.763-.763H3.436a.763.763,0,0,1,.763.763v7.635A.763.763,0,0,1,3.436,32.408ZM17.718,27.6a.757.757,0,0,1-.539.224H14.506a.382.382,0,1,0,0,.763h1.909a.763.763,0,1,1,0,1.527H14.506a.382.382,0,0,0,0,.763h1.145a.763.763,0,1,1,0,1.527H8.78a4.219,4.219,0,0,1-1.565-.272,4.569,4.569,0,0,1-.561-.292c-.159-.092-.318-.184-.484-.263a3.264,3.264,0,0,0-1.208-.305v-6.9a4.474,4.474,0,0,0,2.015-.687c2.485-1.581,3.556-3.233,3.183-4.91-.173-.772-.1-1.088.32-1.3.673-.344,1.233.229,1.458.62,1.141,2-.92,5.291-.941,5.325a.382.382,0,0,0,.322.588H16.8a.763.763,0,1,1,0,1.527h-2.29a.382.382,0,1,0,0,.763h2.672a.763.763,0,0,1,.539,1.3Z" transform="translate(0 -10.267)"/><path d="M32.821,0a.382.382,0,0,0-.382.371V.382c0,.14-.035,3.436-3.057,3.436a.382.382,0,1,0,0,.763c3.011,0,3.057,3.3,3.057,3.436a.382.382,0,0,0,.763.01v-.01c0-.14.035-3.436,3.058-3.436a.382.382,0,1,0,0-.763C33.249,3.817,33.2.521,33.2.382A.382.382,0,0,0,32.821,0Zm1.7,4.2a3.627,3.627,0,0,0-1.7,1.922,3.624,3.624,0,0,0-1.7-1.922,3.624,3.624,0,0,0,1.7-1.922A3.627,3.627,0,0,0,34.52,4.2Z" transform="translate(-17.929 0)"/><path d="M8.054,12.38v0a.382.382,0,1,0-.763,0c0,.094-.032,2.29-1.909,2.29a.382.382,0,1,0,0,.763c1.877,0,1.909,2.2,1.909,2.29v0a.382.382,0,1,0,.763,0c0-.094.032-2.29,1.909-2.29a.382.382,0,1,0,0-.763C8.086,14.67,8.054,12.473,8.054,12.38Zm.513,2.672a2.566,2.566,0,0,0-.895,1.036,2.566,2.566,0,0,0-.895-1.036,2.563,2.563,0,0,0,.895-1.036A2.563,2.563,0,0,0,8.567,15.052Z" transform="translate(-3.091 -7.417)"/><path d="M46.763,21.382a.382.382,0,1,0-.763,0v.763a.382.382,0,1,0,.763,0Z" transform="translate(-28.44 -12.983)"/><path d="M46.382,28.527a.382.382,0,0,0,.382-.382v-.763a.382.382,0,0,0-.763,0v.763A.382.382,0,0,0,46.382,28.527Z" transform="translate(-28.44 -16.693)"/><path d="M49.145,25.763a.382.382,0,0,0,0-.763h-.763a.382.382,0,1,0,0,.763Z" transform="translate(-29.676 -15.456)"/><path d="M43.145,25h-.763a.382.382,0,0,0,0,.763h.763a.382.382,0,1,0,0-.763Z" transform="translate(-25.967 -15.456)"/><path d="M21.6,8.144l.573.573a.382.382,0,0,0,.54-.54L22.144,7.6a.382.382,0,1,0-.54.54Z" transform="translate(-13.285 -4.629)"/><path d="M17.692,4.232a.382.382,0,0,0,.54-.54l-.573-.573a.382.382,0,0,0-.54.54Z" transform="translate(-10.518 -1.862)"/><path d="M17.112,8.717a.382.382,0,0,0,.54,0l.573-.573a.382.382,0,1,0-.54-.54l-.573.573a.382.382,0,0,0,0,.54Z" transform="translate(-10.51 -4.629)"/><path d="M21.882,4.328a.382.382,0,0,0,.27-.112l.573-.573a.382.382,0,1,0-.54-.54l-.573.573a.382.382,0,0,0,.27.652Z" transform="translate(-13.293 -1.847)"/></g></g></g></svg>