<svg xmlns="http://www.w3.org/2000/svg" width="40" height="40" viewBox="0 0 40 40"><defs><style>.a{fill:#e9f2fc;}.b{fill:#bed8fb;}.c{fill:#9dc6fb;}.d{fill:#dfebfa;}.e{fill:#554e56;}.f{fill:#80b4fb;}.g{fill:#ff656f;}.h{fill:#ff4756;}</style></defs><g transform="translate(-231.5 -817)"><circle class="a" cx="20" cy="20" r="20" transform="translate(231.5 817)"/><g transform="translate(240.846 819.154)"><path class="b" d="M171.49,396.741v1.334a1.5,1.5,0,0,1-.646,1.251l-.97.647h7.288l-.97-.647a1.5,1.5,0,0,1-.646-1.251v-1.334Z" transform="translate(-162.687 -372.44)"/><path class="c" d="M171.49,396.741v1.334a1.5,1.5,0,0,1-.646,1.251l-.97.647h2.352l.02-.014a1.5,1.5,0,0,0,.646-1.251v-.923a.41.41,0,0,1,.41-.41h2.244v-.633Z" transform="translate(-162.687 -372.44)"/><path class="d" d="M152.62,472.017h-8.645a.436.436,0,0,0-.436.436v.488a.436.436,0,0,0,.436.436h8.645a.436.436,0,0,0,.436-.436v-.488A.436.436,0,0,0,152.62,472.017Z" transform="translate(-137.466 -444.531)"/><path class="b" d="M145.955,472.94v-.488a.436.436,0,0,1,.436-.436h-2.416a.436.436,0,0,0-.436.436v.488a.436.436,0,0,0,.436.436h2.416A.436.436,0,0,1,145.955,472.94Z" transform="translate(-137.466 -444.53)"/><g transform="translate(0 8.857)"><path d="M20.408,31.736H1.256A1.258,1.258,0,0,0,0,32.992V45.982a1.258,1.258,0,0,0,1.256,1.256H20.408a1.258,1.258,0,0,0,1.256-1.256V32.992a1.258,1.258,0,0,0-1.256-1.256Z" transform="translate(0 -31.736)"/></g><path class="e" d="M1.453,45.982V32.992a1.258,1.258,0,0,1,1.256-1.256H1.256A1.258,1.258,0,0,0,0,32.992V45.982a1.258,1.258,0,0,0,1.256,1.256H2.709A1.258,1.258,0,0,1,1.453,45.982Z" transform="translate(0 -22.879)"/><g transform="translate(1.36 11.746)"><path class="d" d="M32.137,100.02v11.072a.181.181,0,0,0,.181.181H50.9a.181.181,0,0,0,.181-.181V100.02Z" transform="translate(-32.137 -100.02)"/></g><path class="b" d="M33.445,111.093V100.021H32.137v11.072a.181.181,0,0,0,.181.181h1.308A.181.181,0,0,1,33.445,111.093Z" transform="translate(-30.777 -88.275)"/><path class="f" d="M94.345,63.873H77.5V65.49H94.526V64.054A.181.181,0,0,0,94.345,63.873Z" transform="translate(-74.222 -53.656)"/><path class="g" d="M34.1,63.873H32.318a.181.181,0,0,0-.181.181V65.49H34.1Z" transform="translate(-30.777 -53.656)"/><path class="h" d="M33.625,63.873H32.318a.181.181,0,0,0-.181.181V65.49h1.308V64.054A.181.181,0,0,1,33.625,63.873Z" transform="translate(-30.777 -53.656)"/><path class="c" d="M132.242,21.015a5.756,5.756,0,0,0-11.494,0Z" transform="translate(-115.639 -7.399)"/><path class="f" d="M127.993,15.769a5.76,5.76,0,0,0-7.244,5.246h2.993A5.759,5.759,0,0,1,127.993,15.769Z" transform="translate(-115.64 -7.399)"/><path class="b" d="M125.169,13.6a6.082,6.082,0,0,0-12.147,0,.327.327,0,0,0,.326.344h11.494A.327.327,0,0,0,125.169,13.6Zm-2.346-3.617a5.465,5.465,0,0,1-.76.6,5.7,5.7,0,0,0-.978-1.707A5.413,5.413,0,0,1,122.824,9.982Zm-5.718-1.106a5.7,5.7,0,0,0-.978,1.707,5.462,5.462,0,0,1-.76-.6A5.412,5.412,0,0,1,117.106,8.876Zm1.663-.34v2.918a5.377,5.377,0,0,1-2.063-.54A3.421,3.421,0,0,1,118.769,8.536Zm.654,0a3.422,3.422,0,0,1,2.063,2.378,5.377,5.377,0,0,1-2.063.54Zm-4.5,1.922a6.107,6.107,0,0,0,1,.766,9.664,9.664,0,0,0-.344,2.065H113.7A5.4,5.4,0,0,1,114.92,10.458Zm1.588,1.087a6.032,6.032,0,0,0,2.261.564v1.18h-2.543A9.03,9.03,0,0,1,116.508,11.545Zm2.915,1.744V12.11a6.032,6.032,0,0,0,2.261-.564,9.024,9.024,0,0,1,.282,1.744Zm3.2,0a9.662,9.662,0,0,0-.344-2.065,6.1,6.1,0,0,0,1-.766,5.4,5.4,0,0,1,1.216,2.831H122.62Z" transform="translate(-108.24)"/><path class="g" d="M91.14,151.6H77.31a.7.7,0,0,0-.7.7v4.4a.7.7,0,0,0,.7.7H91.14a.7.7,0,0,0,.7-.7v-4.4A.7.7,0,0,0,91.14,151.6Z" transform="translate(-73.368 -137.67)"/><path class="h" d="M78.333,156.7v-4.4a.7.7,0,0,1,.7-.7H77.31a.7.7,0,0,0-.7.7v4.4a.7.7,0,0,0,.7.7h1.723A.7.7,0,0,1,78.333,156.7Z" transform="translate(-73.368 -137.671)"/><g transform="translate(4.554 15.422)"><path class="d" d="M110.527,189.515l.97-2.161a.327.327,0,0,0-.6-.268l-.657,1.464-.367-.9a.327.327,0,0,0-.606,0l-.367.9-.657-1.464a.327.327,0,1,0-.6.268l.97,2.161a.329.329,0,0,0,.3.193h0a.329.329,0,0,0,.3-.2l.353-.866.353.866a.33.33,0,0,0,.3.2h0A.329.329,0,0,0,110.527,189.515Z" transform="translate(-107.621 -186.893)"/><path class="d" d="M196.779,237.962a.327.327,0,0,0-.327.327v.109a.327.327,0,0,0,.654,0v-.109A.327.327,0,0,0,196.779,237.962Z" transform="translate(-192.693 -235.801)"/><path class="d" d="M297.617,237.962a.327.327,0,0,0-.327.327v.109a.327.327,0,1,0,.654,0v-.109A.327.327,0,0,0,297.617,237.962Z" transform="translate(-289.265 -235.801)"/><path class="d" d="M211.365,189.515l.97-2.161a.327.327,0,0,0-.6-.268l-.657,1.464-.367-.9a.327.327,0,0,0-.606,0l-.367.9-.657-1.464a.327.327,0,1,0-.6.268l.97,2.161a.329.329,0,0,0,.3.193h0a.329.329,0,0,0,.3-.2l.353-.866.353.866a.329.329,0,0,0,.3.2h0A.329.329,0,0,0,211.365,189.515Z" transform="translate(-204.192 -186.893)"/><path class="d" d="M312.2,189.515l.97-2.161a.327.327,0,1,0-.6-.268l-.657,1.464-.367-.9a.327.327,0,0,0-.606,0l-.367.9-.657-1.464a.327.327,0,0,0-.6.268l.97,2.161a.329.329,0,0,0,.3.193h0a.329.329,0,0,0,.3-.2l.353-.866.353.866a.329.329,0,0,0,.3.2h0A.329.329,0,0,0,312.2,189.515Z" transform="translate(-300.764 -186.893)"/></g></g></g></svg>