<svg xmlns="http://www.w3.org/2000/svg" width="22.087" height="24" viewBox="0 0 22.087 24"><defs><style>.a{fill:#3c6eaa;}.b{fill:#365889;}.c{fill:#ffcb39;}.d{fill:#efb82e;}.e{fill:#4e8ad1;}.f{fill:#efeadd;}</style></defs><g transform="translate(-20.401)"><path class="a" d="M37.989,7.03H36.967a7.536,7.536,0,0,0-.691-1.655l.718-.713a.742.742,0,0,0,0-1.053l-1.9-1.89a.742.742,0,0,0-1.046,0l-.725.721a7.65,7.65,0,0,0-1.665-.686V.742A.742.742,0,0,0,30.913,0H28.218a.742.742,0,0,0-.742.742V1.753a7.656,7.656,0,0,0-1.666.686l-.724-.72a.742.742,0,0,0-1.046,0l-1.9,1.89a.742.742,0,0,0,0,1.053l.718.713a7.585,7.585,0,0,0-.691,1.655H21.143a.742.742,0,0,0-.742.742V10.44a.742.742,0,0,0,.742.742h1.021a7.584,7.584,0,0,0,.691,1.655l-.718.713a.742.742,0,0,0,0,1.053l1.9,1.89a.742.742,0,0,0,1.046,0l.724-.72a7.711,7.711,0,0,0,1.666.687v1.01a.744.744,0,0,0,.742.742h2.695a.742.742,0,0,0,.742-.742V16.46a7.707,7.707,0,0,0,1.665-.687l.722.717,0,0a.742.742,0,0,0,1.046,0l.965-.959.937-.931a.742.742,0,0,0,0-1.053l-.718-.713a7.532,7.532,0,0,0,.691-1.655h1.022a.742.742,0,0,0,.742-.742V7.772A.742.742,0,0,0,37.989,7.03Zm-8.423,5.482a3.351,3.351,0,0,1-.383-.021,3.423,3.423,0,1,1,.383.021Z" transform="translate(0)"/><path class="b" d="M186.575,199.8l-.1.1c-.063-.027-.127-.053-.192-.079v-.126a1.465,1.465,0,0,0-1.464-1.464h-2.053a1.466,1.466,0,0,0-1.464,1.464v.126c-.064.025-.128.051-.192.079l-.1-.1a1.461,1.461,0,0,0-.244-.2,3.416,3.416,0,0,1-3.015,1.8,3.352,3.352,0,0,1-.383-.021,1.463,1.463,0,0,0,.129,1.93l.088.087c-.026.06-.051.121-.076.182h-.137a1.466,1.466,0,0,0-1.464,1.464v1.868a.735.735,0,0,0,.5.19H179.1a.742.742,0,0,0,.742-.742v-1.01a7.707,7.707,0,0,0,1.665-.687l.722.717a1.71,1.71,0,0,1,2.015-.955l.937-.931a.742.742,0,0,0,0-1.053l-.718-.713a7.532,7.532,0,0,0,.691-1.655h1.022a.742.742,0,0,0,.706-.512A1.452,1.452,0,0,0,186.575,199.8Z" transform="translate(-148.254 -188.959)"/><path class="c" d="M107.5,80.532a5.314,5.314,0,0,0-.262,10.621q.13.007.262.007a5.313,5.313,0,0,0,5.309-5.085c0-.075,0-.151,0-.228A5.314,5.314,0,0,0,107.5,80.532Zm3,6.94a3.414,3.414,0,0,1-3,1.781,3.336,3.336,0,0,1-.382-.021h0a3.409,3.409,0,1,1,3.4-1.781Z" transform="translate(-77.966 -76.77)"/><path class="d" d="M206.168,198.224a1.466,1.466,0,0,0-1.464,1.464v.126c-.064.025-.128.051-.192.079l-.1-.1a1.462,1.462,0,0,0-.244-.2l-.012.022a3.414,3.414,0,0,1-3,1.781,3.335,3.335,0,0,1-.382-.021h0a1.463,1.463,0,0,0,.121,1.922q.13.007.262.007a5.313,5.313,0,0,0,5.309-5.086Z" transform="translate(-171.642 -188.943)"/><path class="e" d="M208.959,225.262V223.23a.565.565,0,0,0-.565-.565h-.779a5.742,5.742,0,0,0-.526-1.261l.547-.544a.565.565,0,0,0,0-.8l-1.449-1.44a.565.565,0,0,0-.8,0l-.552.549a5.82,5.82,0,0,0-1.269-.523v-.77a.565.565,0,0,0-.565-.565h-2.053a.565.565,0,0,0-.565.565v.77a5.829,5.829,0,0,0-1.269.523l-.552-.549a.565.565,0,0,0-.8,0l-1.449,1.44a.565.565,0,0,0,0,.8l.547.544a5.771,5.771,0,0,0-.527,1.261h-.778a.565.565,0,0,0-.565.565v2.032a.565.565,0,0,0,.565.565h.778a5.773,5.773,0,0,0,.527,1.261l-.547.544a.565.565,0,0,0,0,.8l1.449,1.44a.565.565,0,0,0,.8,0l.552-.549a5.857,5.857,0,0,0,1.269.524v.77a.565.565,0,0,0,.565.565H203a.565.565,0,0,0,.565-.565v-.77a5.853,5.853,0,0,0,1.269-.524l.553.549a.565.565,0,0,0,.8,0l1.449-1.44a.565.565,0,0,0,0-.8l-.547-.544a5.748,5.748,0,0,0,.526-1.261h.779A.566.566,0,0,0,208.959,225.262Zm-6.983,1.579a2.6,2.6,0,1,1,2.6-2.6A2.6,2.6,0,0,1,201.976,226.841Z" transform="translate(-166.471 -207.184)"/><path class="f" d="M261.355,278.664a4.049,4.049,0,1,0,4.048,4.049A4.049,4.049,0,0,0,261.355,278.664Zm0,6.644a2.6,2.6,0,1,1,2.6-2.6A2.6,2.6,0,0,1,261.355,285.308Z" transform="translate(-225.849 -265.651)"/></g></svg>